<?xml version="1.0" encoding="utf-8" standalone="no"?>
<!DOCTYPE svg PUBLIC "-//W3C//DTD SVG 1.1//EN"
  "http://www.w3.org/Graphics/SVG/1.1/DTD/svg11.dtd">
<svg height="314.809656pt" version="1.1" viewBox="0 0 416.695 314.809656" width="416.695pt" xmlns="http://www.w3.org/2000/svg" xmlns:xlink="http://www.w3.org/1999/xlink">
 <metadata>
  <rdf:RDF xmlns:cc="http://creativecommons.org/ns#" xmlns:dc="http://purl.org/dc/elements/1.1/" xmlns:rdf="http://www.w3.org/1999/02/22-rdf-syntax-ns#">
   <cc:Work>
    <dc:type rdf:resource="http://purl.org/dc/dcmitype/StillImage"/>
    <dc:date>2023-05-27T03:45:01.656461</dc:date>
    <dc:format>image/svg+xml</dc:format>
    <dc:creator>
     <cc:Agent>
      <dc:title>Matplotlib v3.4.2, https://matplotlib.org/</dc:title>
     </cc:Agent>
    </dc:creator>
   </cc:Work>
  </rdf:RDF>
 </metadata>
 <defs>
  <style type="text/css">*{stroke-linecap:butt;stroke-linejoin:round;}</style>
 </defs>
 <g id="figure_1">
  <g id="patch_1">
   <path d="M 0 314.809656 
L 416.695 314.809656 
L 416.695 0 
L 0 0 
z
" style="fill:#ffffff;"/>
  </g>
  <g id="axes_1">
   <g id="patch_2">
    <path d="M 45.417188 277.111219 
L 402.537188 277.111219 
L 402.537188 10.999219 
L 45.417188 10.999219 
z
" style="fill:#ffffff;"/>
   </g>
   <g id="PolyCollection_1">
    <path clip-path="url(#p024490290f)" d="M 45.417188 259.370419 
L 45.417188 50.028979 
L 75.177188 52.690099 
L 104.937188 97.929139 
L 134.697188 97.929139 
L 164.457188 108.573619 
L 194.217187 118.331059 
L 223.977188 75.753139 
L 253.737188 124.540339 
L 283.497187 176.875699 
L 313.257187 193.729459 
L 343.017187 214.131379 
L 372.777187 214.131379 
L 402.537188 255.822259 
L 402.537188 291.303859 
L 402.537188 291.303859 
L 372.777187 302.835379 
L 343.017187 302.835379 
L 313.257187 293.077939 
L 283.497187 318.802099 
L 253.737188 296.626099 
L 223.977188 308.157619 
L 194.217187 295.739059 
L 164.457188 298.400179 
L 134.697188 285.981619 
L 104.937188 285.981619 
L 75.177188 221.227699 
L 45.417188 259.370419 
z
" style="fill:#008000;fill-opacity:0.1;"/>
   </g>
   <g id="PolyCollection_2">
    <path clip-path="url(#p024490290f)" d="M 45.417188 292.190899 
L 45.417188 121.879219 
L 75.177188 124.540339 
L 104.937188 121.879219 
L 134.697188 112.121779 
L 164.457188 121.879219 
L 194.217187 107.686579 
L 223.977188 120.105139 
L 253.737188 109.460659 
L 283.497187 118.331059 
L 313.257187 112.121779 
L 343.017187 128.088499 
L 372.777187 96.155059 
L 402.537188 116.556979 
L 402.537188 281.546419 
L 402.537188 281.546419 
L 372.777187 280.659379 
L 343.017187 278.885299 
L 313.257187 294.852019 
L 283.497187 295.739059 
L 253.737188 288.642739 
L 223.977188 286.868659 
L 194.217187 285.094579 
L 164.457188 292.190899 
L 134.697188 294.852019 
L 104.937188 292.190899 
L 75.177188 296.626099 
L 45.417188 292.190899 
z
" style="fill:#a52a2a;fill-opacity:0.1;"/>
   </g>
   <g id="PolyCollection_3">
    <path clip-path="url(#p024490290f)" d="M 45.417188 295.739059 
L 45.417188 118.331059 
L 75.177188 99.703219 
L 104.937188 156.473779 
L 134.697188 187.520179 
L 164.457188 165.344179 
L 194.217187 172.440499 
L 223.977188 192.842419 
L 253.737188 148.490419 
L 283.497187 226.549939 
L 313.257187 229.211059 
L 343.017187 245.177779 
L 372.777187 226.549939 
L 402.537188 277.111219 
L 402.537188 277.111219 
L 402.537188 277.111219 
L 372.777187 304.609459 
L 343.017187 294.852019 
L 313.257187 294.852019 
L 283.497187 304.609459 
L 253.737188 309.931699 
L 223.977188 302.835379 
L 194.217187 307.270579 
L 164.457188 300.174259 
L 134.697188 299.287219 
L 104.937188 301.948339 
L 75.177188 277.111219 
L 45.417188 295.739059 
z
" style="fill:#ff0000;fill-opacity:0.1;"/>
   </g>
   <g id="PolyCollection_4">
    <path clip-path="url(#p024490290f)" d="M 45.417188 284.207539 
L 45.417188 181.310899 
L 75.177188 121.879219 
L 104.937188 211.470259 
L 134.697188 159.134899 
L 164.457188 216.792499 
L 194.217187 196.390579 
L 223.977188 222.114739 
L 253.737188 208.809139 
L 283.497187 226.549939 
L 313.257187 226.549939 
L 343.017187 181.310899 
L 372.777187 226.549939 
L 402.537188 277.111219 
L 402.537188 277.111219 
L 402.537188 277.111219 
L 372.777187 304.609459 
L 343.017187 328.559539 
L 313.257187 304.609459 
L 283.497187 304.609459 
L 253.737188 301.061299 
L 223.977188 294.852019 
L 194.217187 313.479859 
L 164.457188 293.077939 
L 134.697188 313.479859 
L 104.937188 291.303859 
L 75.177188 292.190899 
L 45.417188 284.207539 
z
" style="fill:#0000ff;fill-opacity:0.1;"/>
   </g>
   <g id="matplotlib.axis_1">
    <g id="xtick_1">
     <g id="line2d_1">
      <defs>
       <path d="M 0 0 
L 0 3.5 
" id="m548e8af15e" style="stroke:#000000;stroke-width:0.8;"/>
      </defs>
      <g>
       <use style="stroke:#000000;stroke-width:0.8;" x="45.417188" xlink:href="#m548e8af15e" y="277.111219"/>
      </g>
     </g>
     <g id="text_1">
      <!-- 0 -->
      <g transform="translate(41.938281 291.709656)scale(0.1 -0.1)">
       <defs>
        <path d="M 2228 275 
Q 2603 275 2742 615 
Q 2881 956 2881 2328 
Q 2881 3691 2742 4037 
Q 2603 4384 2228 4384 
Q 1853 4384 1714 4043 
Q 1575 3703 1575 2328 
Q 1575 956 1714 615 
Q 1853 275 2228 275 
z
M 2228 -91 
Q 1294 -91 797 532 
Q 300 1156 300 2328 
Q 300 3500 797 4125 
Q 1294 4750 2228 4750 
Q 3159 4750 3656 4125 
Q 4153 3500 4153 2328 
Q 4153 1156 3656 532 
Q 3159 -91 2228 -91 
z
" id="DejaVuSerif-Bold-30" transform="scale(0.015625)"/>
       </defs>
       <use xlink:href="#DejaVuSerif-Bold-30"/>
      </g>
     </g>
    </g>
    <g id="xtick_2">
     <g id="line2d_2">
      <g>
       <use style="stroke:#000000;stroke-width:0.8;" x="104.937188" xlink:href="#m548e8af15e" y="277.111219"/>
      </g>
     </g>
     <g id="text_2">
      <!-- 2 -->
      <g transform="translate(101.458281 291.709656)scale(0.1 -0.1)">
       <defs>
        <path d="M 844 3513 
L 469 3513 
L 469 4519 
Q 850 4634 1223 4692 
Q 1597 4750 1978 4750 
Q 2869 4750 3367 4386 
Q 3866 4022 3866 3372 
Q 3866 2909 3591 2542 
Q 3316 2175 2541 1672 
L 1241 819 
L 3450 819 
L 3450 1369 
L 3878 1369 
L 3878 0 
L 428 0 
L 428 763 
L 1119 1241 
Q 2003 1850 2297 2278 
Q 2591 2706 2591 3278 
Q 2591 3819 2367 4101 
Q 2144 4384 1716 4384 
Q 1347 4384 1125 4161 
Q 903 3938 844 3513 
z
" id="DejaVuSerif-Bold-32" transform="scale(0.015625)"/>
       </defs>
       <use xlink:href="#DejaVuSerif-Bold-32"/>
      </g>
     </g>
    </g>
    <g id="xtick_3">
     <g id="line2d_3">
      <g>
       <use style="stroke:#000000;stroke-width:0.8;" x="164.457188" xlink:href="#m548e8af15e" y="277.111219"/>
      </g>
     </g>
     <g id="text_3">
      <!-- 4 -->
      <g transform="translate(160.978281 291.709656)scale(0.1 -0.1)">
       <defs>
        <path d="M 4084 0 
L 1516 0 
L 1516 378 
L 2209 378 
L 2209 1228 
L 263 1228 
L 263 1588 
L 2216 4750 
L 3391 4750 
L 3391 1631 
L 4191 1631 
L 4191 1228 
L 3391 1228 
L 3391 378 
L 4084 378 
L 4084 0 
z
M 2209 1631 
L 2209 3897 
L 819 1631 
L 2209 1631 
z
" id="DejaVuSerif-Bold-34" transform="scale(0.015625)"/>
       </defs>
       <use xlink:href="#DejaVuSerif-Bold-34"/>
      </g>
     </g>
    </g>
    <g id="xtick_4">
     <g id="line2d_4">
      <g>
       <use style="stroke:#000000;stroke-width:0.8;" x="223.977188" xlink:href="#m548e8af15e" y="277.111219"/>
      </g>
     </g>
     <g id="text_4">
      <!-- 6 -->
      <g transform="translate(220.498281 291.709656)scale(0.1 -0.1)">
       <defs>
        <path d="M 1575 2766 
Q 1778 2928 2029 3009 
Q 2281 3091 2578 3091 
Q 3294 3091 3701 2672 
Q 4109 2253 4109 1522 
Q 4109 750 3650 329 
Q 3191 -91 2344 -91 
Q 1388 -91 895 486 
Q 403 1063 403 2181 
Q 403 3453 950 4101 
Q 1497 4750 2572 4750 
Q 2853 4750 3175 4703 
Q 3497 4656 3866 4563 
L 3866 3738 
L 3488 3738 
Q 3409 4056 3192 4220 
Q 2975 4384 2631 4384 
Q 2075 4384 1826 4003 
Q 1578 3622 1575 2766 
z
M 2272 275 
Q 2594 275 2731 548 
Q 2869 822 2869 1497 
Q 2869 2172 2731 2445 
Q 2594 2719 2272 2719 
Q 1950 2719 1814 2445 
Q 1678 2172 1678 1497 
Q 1678 822 1814 548 
Q 1950 275 2272 275 
z
" id="DejaVuSerif-Bold-36" transform="scale(0.015625)"/>
       </defs>
       <use xlink:href="#DejaVuSerif-Bold-36"/>
      </g>
     </g>
    </g>
    <g id="xtick_5">
     <g id="line2d_5">
      <g>
       <use style="stroke:#000000;stroke-width:0.8;" x="283.497187" xlink:href="#m548e8af15e" y="277.111219"/>
      </g>
     </g>
     <g id="text_5">
      <!-- 8 -->
      <g transform="translate(280.018281 291.709656)scale(0.1 -0.1)">
       <defs>
        <path d="M 2975 2484 
Q 3531 2394 3820 2075 
Q 4109 1756 4109 1241 
Q 4109 597 3623 253 
Q 3138 -91 2222 -91 
Q 1306 -91 818 253 
Q 331 597 331 1241 
Q 331 1756 622 2075 
Q 913 2394 1466 2484 
Q 975 2597 731 2861 
Q 488 3125 488 3531 
Q 488 4125 931 4437 
Q 1375 4750 2222 4750 
Q 3066 4750 3511 4437 
Q 3956 4125 3956 3531 
Q 3956 3125 3711 2861 
Q 3466 2597 2975 2484 
z
M 2747 3519 
Q 2747 4013 2628 4198 
Q 2509 4384 2222 4384 
Q 1931 4384 1814 4198 
Q 1697 4013 1697 3519 
Q 1697 3028 1814 2845 
Q 1931 2663 2222 2663 
Q 2513 2663 2630 2845 
Q 2747 3028 2747 3519 
z
M 2869 1294 
Q 2869 1866 2723 2081 
Q 2578 2297 2222 2297 
Q 1863 2297 1719 2081 
Q 1575 1866 1575 1294 
Q 1575 716 1720 495 
Q 1866 275 2222 275 
Q 2575 275 2722 495 
Q 2869 716 2869 1294 
z
" id="DejaVuSerif-Bold-38" transform="scale(0.015625)"/>
       </defs>
       <use xlink:href="#DejaVuSerif-Bold-38"/>
      </g>
     </g>
    </g>
    <g id="xtick_6">
     <g id="line2d_6">
      <g>
       <use style="stroke:#000000;stroke-width:0.8;" x="343.017187" xlink:href="#m548e8af15e" y="277.111219"/>
      </g>
     </g>
     <g id="text_6">
      <!-- 10 -->
      <g transform="translate(336.059375 291.709656)scale(0.1 -0.1)">
       <defs>
        <path d="M 878 0 
L 878 378 
L 1753 378 
L 1753 4153 
L 781 3578 
L 781 4044 
L 1953 4750 
L 2938 4750 
L 2938 378 
L 3816 378 
L 3816 0 
L 878 0 
z
" id="DejaVuSerif-Bold-31" transform="scale(0.015625)"/>
       </defs>
       <use xlink:href="#DejaVuSerif-Bold-31"/>
       <use x="69.580078" xlink:href="#DejaVuSerif-Bold-30"/>
      </g>
     </g>
    </g>
    <g id="xtick_7">
     <g id="line2d_7">
      <g>
       <use style="stroke:#000000;stroke-width:0.8;" x="402.537188" xlink:href="#m548e8af15e" y="277.111219"/>
      </g>
     </g>
     <g id="text_7">
      <!-- 12 -->
      <g transform="translate(395.579375 291.709656)scale(0.1 -0.1)">
       <use xlink:href="#DejaVuSerif-Bold-31"/>
       <use x="69.580078" xlink:href="#DejaVuSerif-Bold-32"/>
      </g>
     </g>
    </g>
    <g id="text_8">
     <!-- The count of room visits in learning -->
     <g transform="translate(123.157656 305.387781)scale(0.1 -0.1)">
      <defs>
       <path d="M 1159 0 
L 1159 378 
L 1778 378 
L 1778 4238 
L 500 4238 
L 500 3500 
L 72 3500 
L 72 4666 
L 4697 4666 
L 4697 3500 
L 4275 3500 
L 4275 4238 
L 2988 4238 
L 2988 378 
L 3609 378 
L 3609 0 
L 1159 0 
z
" id="DejaVuSerif-Bold-54" transform="scale(0.015625)"/>
       <path d="M 219 0 
L 219 378 
L 691 378 
L 691 4488 
L 197 4488 
L 197 4863 
L 1797 4863 
L 1797 2853 
Q 1997 3150 2253 3281 
Q 2509 3413 2900 3413 
Q 3459 3413 3745 3083 
Q 4031 2753 4031 2113 
L 4031 378 
L 4506 378 
L 4506 0 
L 2522 0 
L 2522 378 
L 2925 378 
L 2925 2144 
Q 2925 2566 2817 2730 
Q 2709 2894 2444 2894 
Q 2109 2894 1953 2648 
Q 1797 2403 1797 1869 
L 1797 378 
L 2203 378 
L 2203 0 
L 219 0 
z
" id="DejaVuSerif-Bold-68" transform="scale(0.015625)"/>
       <path d="M 2566 1875 
Q 2566 2531 2444 2795 
Q 2322 3059 2028 3059 
Q 1744 3059 1620 2800 
Q 1497 2541 1497 1931 
L 1497 1875 
L 2566 1875 
z
M 3781 1503 
L 1497 1503 
L 1497 1478 
Q 1497 834 1690 548 
Q 1884 263 2316 263 
Q 2675 263 2897 453 
Q 3119 644 3181 1006 
L 3700 1006 
Q 3566 441 3166 175 
Q 2766 -91 2047 -91 
Q 1184 -91 723 364 
Q 263 819 263 1663 
Q 263 2488 734 2950 
Q 1206 3413 2047 3413 
Q 2872 3413 3312 2927 
Q 3753 2441 3781 1503 
z
" id="DejaVuSerif-Bold-65" transform="scale(0.015625)"/>
       <path id="DejaVuSerif-Bold-20" transform="scale(0.015625)"/>
       <path d="M 3609 1038 
Q 3491 469 3123 189 
Q 2756 -91 2125 -91 
Q 1238 -91 750 368 
Q 263 828 263 1663 
Q 263 2488 744 2950 
Q 1225 3413 2081 3413 
Q 2428 3413 2781 3347 
Q 3134 3281 3500 3150 
L 3500 2228 
L 3150 2228 
Q 3100 2650 2903 2854 
Q 2706 3059 2350 3059 
Q 1888 3059 1692 2746 
Q 1497 2434 1497 1663 
Q 1497 909 1687 586 
Q 1878 263 2309 263 
Q 2644 263 2845 463 
Q 3047 663 3091 1038 
L 3609 1038 
z
" id="DejaVuSerif-Bold-63" transform="scale(0.015625)"/>
       <path d="M 2138 263 
Q 2488 263 2630 563 
Q 2772 863 2772 1663 
Q 2772 2463 2631 2761 
Q 2491 3059 2138 3059 
Q 1784 3059 1640 2757 
Q 1497 2456 1497 1663 
Q 1497 869 1640 566 
Q 1784 263 2138 263 
z
M 2138 -91 
Q 1259 -91 761 376 
Q 263 844 263 1663 
Q 263 2484 761 2948 
Q 1259 3413 2138 3413 
Q 3019 3413 3516 2948 
Q 4013 2484 4013 1663 
Q 4013 844 3514 376 
Q 3016 -91 2138 -91 
z
" id="DejaVuSerif-Bold-6f" transform="scale(0.015625)"/>
       <path d="M 3963 3322 
L 3963 378 
L 4434 378 
L 4434 0 
L 2853 0 
L 2853 469 
Q 2656 172 2400 40 
Q 2144 -91 1753 -91 
Q 1194 -91 908 239 
Q 622 569 622 1209 
L 622 2944 
L 147 2944 
L 147 3322 
L 1728 3322 
L 1728 1381 
Q 1728 763 1831 595 
Q 1934 428 2209 428 
Q 2544 428 2698 675 
Q 2853 922 2853 1459 
L 2853 2944 
L 2450 2944 
L 2450 3322 
L 3963 3322 
z
" id="DejaVuSerif-Bold-75" transform="scale(0.015625)"/>
       <path d="M 219 0 
L 219 378 
L 691 378 
L 691 2944 
L 219 2944 
L 219 3322 
L 1797 3322 
L 1797 2853 
Q 1997 3150 2253 3281 
Q 2509 3413 2900 3413 
Q 3459 3413 3745 3083 
Q 4031 2753 4031 2113 
L 4031 378 
L 4506 378 
L 4506 0 
L 2522 0 
L 2522 378 
L 2925 378 
L 2925 2144 
Q 2925 2566 2817 2730 
Q 2709 2894 2444 2894 
Q 2109 2894 1953 2648 
Q 1797 2403 1797 1869 
L 1797 378 
L 2203 378 
L 2203 0 
L 219 0 
z
" id="DejaVuSerif-Bold-6e" transform="scale(0.015625)"/>
       <path d="M 634 2944 
L 153 2944 
L 153 3322 
L 634 3322 
L 634 4353 
L 1741 4353 
L 1741 3322 
L 2663 3322 
L 2663 2944 
L 1741 2944 
L 1741 909 
Q 1741 475 1809 369 
Q 1878 263 2059 263 
Q 2259 263 2356 397 
Q 2453 531 2459 813 
L 2925 813 
Q 2897 313 2651 111 
Q 2406 -91 1806 -91 
Q 1122 -91 878 123 
Q 634 338 634 909 
L 634 2944 
z
" id="DejaVuSerif-Bold-74" transform="scale(0.015625)"/>
       <path d="M 3097 4031 
L 2747 4031 
Q 2722 4275 2605 4394 
Q 2488 4513 2272 4513 
Q 2022 4513 1909 4333 
Q 1797 4153 1797 3750 
L 1797 3322 
L 2631 3322 
L 2631 2944 
L 1797 2944 
L 1797 378 
L 2438 378 
L 2438 0 
L 219 0 
L 219 378 
L 691 378 
L 691 2944 
L 197 2944 
L 197 3322 
L 691 3322 
L 691 3738 
Q 691 4291 1044 4577 
Q 1397 4863 2081 4863 
Q 2347 4863 2600 4833 
Q 2853 4803 3097 4744 
L 3097 4031 
z
" id="DejaVuSerif-Bold-66" transform="scale(0.015625)"/>
       <path d="M 3438 3359 
L 3438 2369 
L 3084 2369 
Q 3066 2634 2941 2764 
Q 2816 2894 2578 2894 
Q 2216 2894 2006 2575 
Q 1797 2256 1797 1691 
L 1797 378 
L 2400 378 
L 2400 0 
L 219 0 
L 219 378 
L 691 378 
L 691 2944 
L 184 2944 
L 184 3322 
L 1797 3322 
L 1797 2731 
Q 1959 3078 2226 3245 
Q 2494 3413 2881 3413 
Q 2978 3413 3117 3398 
Q 3256 3384 3438 3359 
z
" id="DejaVuSerif-Bold-72" transform="scale(0.015625)"/>
       <path d="M 3884 2778 
Q 4116 3109 4384 3261 
Q 4653 3413 5013 3413 
Q 5584 3413 5867 3089 
Q 6150 2766 6150 2113 
L 6150 378 
L 6625 378 
L 6625 0 
L 4647 0 
L 4647 378 
L 5044 378 
L 5044 1947 
Q 5044 2569 4948 2731 
Q 4853 2894 4594 2894 
Q 4300 2894 4137 2667 
Q 3975 2441 3975 2022 
L 3975 378 
L 4372 378 
L 4372 0 
L 2472 0 
L 2472 378 
L 2869 378 
L 2869 1947 
Q 2869 2569 2772 2731 
Q 2675 2894 2419 2894 
Q 2122 2894 1959 2667 
Q 1797 2441 1797 2022 
L 1797 378 
L 2194 378 
L 2194 0 
L 219 0 
L 219 378 
L 691 378 
L 691 2944 
L 219 2944 
L 219 3322 
L 1797 3322 
L 1797 2853 
Q 1991 3144 2241 3278 
Q 2491 3413 2834 3413 
Q 3241 3413 3494 3258 
Q 3747 3103 3884 2778 
z
" id="DejaVuSerif-Bold-6d" transform="scale(0.015625)"/>
       <path d="M 1428 0 
L 250 2944 
L -116 2944 
L -116 3322 
L 1791 3322 
L 1791 2944 
L 1388 2944 
L 2228 844 
L 3066 2944 
L 2631 2944 
L 2631 3322 
L 3878 3322 
L 3878 2944 
L 3494 2944 
L 2316 0 
L 1428 0 
z
" id="DejaVuSerif-Bold-76" transform="scale(0.015625)"/>
       <path d="M 588 4263 
Q 588 4516 763 4689 
Q 938 4863 1191 4863 
Q 1438 4863 1611 4689 
Q 1784 4516 1784 4263 
Q 1784 4016 1611 3842 
Q 1438 3669 1191 3669 
Q 938 3669 763 3841 
Q 588 4013 588 4263 
z
M 1797 378 
L 2272 378 
L 2272 0 
L 219 0 
L 219 378 
L 691 378 
L 691 2944 
L 219 2944 
L 219 3322 
L 1797 3322 
L 1797 378 
z
" id="DejaVuSerif-Bold-69" transform="scale(0.015625)"/>
       <path d="M 300 97 
L 300 1025 
L 653 1025 
Q 697 653 931 458 
Q 1166 263 1569 263 
Q 1906 263 2086 380 
Q 2266 497 2266 716 
Q 2266 916 2152 1025 
Q 2038 1134 1709 1216 
L 1253 1331 
Q 738 1459 506 1698 
Q 275 1938 275 2344 
Q 275 2884 650 3148 
Q 1025 3413 1806 3413 
Q 2100 3413 2433 3364 
Q 2766 3316 3169 3213 
L 3169 2375 
L 2816 2375 
Q 2788 2716 2573 2887 
Q 2359 3059 1959 3059 
Q 1622 3059 1448 2951 
Q 1275 2844 1275 2638 
Q 1275 2469 1375 2372 
Q 1475 2275 1734 2209 
L 2188 2094 
Q 2841 1928 3091 1684 
Q 3341 1441 3341 1006 
Q 3341 444 2939 176 
Q 2538 -91 1691 -91 
Q 1381 -91 1034 -44 
Q 688 3 300 97 
z
" id="DejaVuSerif-Bold-73" transform="scale(0.015625)"/>
       <path d="M 1797 378 
L 2272 378 
L 2272 0 
L 219 0 
L 219 378 
L 691 378 
L 691 4488 
L 219 4488 
L 219 4863 
L 1797 4863 
L 1797 378 
z
" id="DejaVuSerif-Bold-6c" transform="scale(0.015625)"/>
       <path d="M 3525 2041 
L 3525 378 
L 4000 378 
L 4000 0 
L 2419 0 
L 2419 422 
Q 2200 159 1931 34 
Q 1663 -91 1319 -91 
Q 809 -91 536 182 
Q 263 456 263 966 
Q 263 1525 655 1803 
Q 1047 2081 1838 2081 
L 2419 2081 
L 2419 2278 
Q 2419 2681 2228 2873 
Q 2038 3066 1638 3066 
Q 1306 3066 1126 2930 
Q 947 2794 872 2484 
L 519 2484 
L 519 3200 
Q 816 3306 1134 3359 
Q 1453 3413 1806 3413 
Q 2697 3413 3111 3081 
Q 3525 2750 3525 2041 
z
M 2419 1044 
L 2419 1709 
L 2003 1709 
Q 1694 1709 1528 1540 
Q 1363 1372 1363 1056 
Q 1363 741 1483 584 
Q 1603 428 1850 428 
Q 2106 428 2262 597 
Q 2419 766 2419 1044 
z
" id="DejaVuSerif-Bold-61" transform="scale(0.015625)"/>
       <path d="M 3853 2944 
L 3853 44 
Q 3853 -656 3354 -1039 
Q 2856 -1422 1947 -1422 
Q 1616 -1422 1275 -1370 
Q 934 -1319 575 -1216 
L 575 -422 
L 928 -422 
Q 975 -750 1192 -909 
Q 1409 -1069 1813 -1069 
Q 2325 -1069 2536 -823 
Q 2747 -578 2747 44 
L 2747 422 
Q 2606 163 2367 36 
Q 2128 -91 1778 -91 
Q 1072 -91 667 378 
Q 263 847 263 1663 
Q 263 2481 667 2947 
Q 1072 3413 1778 3413 
Q 2128 3413 2367 3286 
Q 2606 3159 2747 2900 
L 2747 3322 
L 4325 3322 
L 4325 2944 
L 3853 2944 
z
M 2747 1825 
Q 2747 2406 2597 2665 
Q 2447 2925 2119 2925 
Q 1775 2925 1636 2651 
Q 1497 2378 1497 1663 
Q 1497 947 1637 672 
Q 1778 397 2119 397 
Q 2447 397 2597 656 
Q 2747 916 2747 1497 
L 2747 1825 
z
" id="DejaVuSerif-Bold-67" transform="scale(0.015625)"/>
      </defs>
      <use xlink:href="#DejaVuSerif-Bold-54"/>
      <use x="74.414062" xlink:href="#DejaVuSerif-Bold-68"/>
      <use x="147.119141" xlink:href="#DejaVuSerif-Bold-65"/>
      <use x="210.742188" xlink:href="#DejaVuSerif-Bold-20"/>
      <use x="245.556641" xlink:href="#DejaVuSerif-Bold-63"/>
      <use x="306.445312" xlink:href="#DejaVuSerif-Bold-6f"/>
      <use x="373.144531" xlink:href="#DejaVuSerif-Bold-75"/>
      <use x="445.849609" xlink:href="#DejaVuSerif-Bold-6e"/>
      <use x="518.554688" xlink:href="#DejaVuSerif-Bold-74"/>
      <use x="564.746094" xlink:href="#DejaVuSerif-Bold-20"/>
      <use x="599.560547" xlink:href="#DejaVuSerif-Bold-6f"/>
      <use x="666.259766" xlink:href="#DejaVuSerif-Bold-66"/>
      <use x="709.277344" xlink:href="#DejaVuSerif-Bold-20"/>
      <use x="744.091797" xlink:href="#DejaVuSerif-Bold-72"/>
      <use x="796.777344" xlink:href="#DejaVuSerif-Bold-6f"/>
      <use x="863.476562" xlink:href="#DejaVuSerif-Bold-6f"/>
      <use x="930.175781" xlink:href="#DejaVuSerif-Bold-6d"/>
      <use x="1035.986328" xlink:href="#DejaVuSerif-Bold-20"/>
      <use x="1070.800781" xlink:href="#DejaVuSerif-Bold-76"/>
      <use x="1128.90625" xlink:href="#DejaVuSerif-Bold-69"/>
      <use x="1166.894531" xlink:href="#DejaVuSerif-Bold-73"/>
      <use x="1223.193359" xlink:href="#DejaVuSerif-Bold-69"/>
      <use x="1261.181641" xlink:href="#DejaVuSerif-Bold-74"/>
      <use x="1307.373047" xlink:href="#DejaVuSerif-Bold-73"/>
      <use x="1363.671875" xlink:href="#DejaVuSerif-Bold-20"/>
      <use x="1398.486328" xlink:href="#DejaVuSerif-Bold-69"/>
      <use x="1436.474609" xlink:href="#DejaVuSerif-Bold-6e"/>
      <use x="1509.179688" xlink:href="#DejaVuSerif-Bold-20"/>
      <use x="1543.994141" xlink:href="#DejaVuSerif-Bold-6c"/>
      <use x="1581.982422" xlink:href="#DejaVuSerif-Bold-65"/>
      <use x="1645.605469" xlink:href="#DejaVuSerif-Bold-61"/>
      <use x="1710.400391" xlink:href="#DejaVuSerif-Bold-72"/>
      <use x="1763.085938" xlink:href="#DejaVuSerif-Bold-6e"/>
      <use x="1835.791016" xlink:href="#DejaVuSerif-Bold-69"/>
      <use x="1873.779297" xlink:href="#DejaVuSerif-Bold-6e"/>
      <use x="1946.484375" xlink:href="#DejaVuSerif-Bold-67"/>
     </g>
    </g>
   </g>
   <g id="matplotlib.axis_2">
    <g id="ytick_1">
     <g id="line2d_8">
      <defs>
       <path d="M 0 0 
L -3.5 0 
" id="m8054802f6a" style="stroke:#000000;stroke-width:0.8;"/>
      </defs>
      <g>
       <use style="stroke:#000000;stroke-width:0.8;" x="45.417188" xlink:href="#m8054802f6a" y="277.111219"/>
      </g>
     </g>
     <g id="text_9">
      <!-- 1.0 -->
      <g transform="translate(21.020313 280.910437)scale(0.1 -0.1)">
       <defs>
        <path d="M 519 506 
Q 519 750 694 925 
Q 869 1100 1113 1100 
Q 1359 1100 1534 925 
Q 1709 750 1709 506 
Q 1709 259 1534 84 
Q 1359 -91 1113 -91 
Q 869 -91 694 84 
Q 519 259 519 506 
z
" id="DejaVuSerif-Bold-2e" transform="scale(0.015625)"/>
       </defs>
       <use xlink:href="#DejaVuSerif-Bold-31"/>
       <use x="69.580078" xlink:href="#DejaVuSerif-Bold-2e"/>
       <use x="104.394531" xlink:href="#DejaVuSerif-Bold-30"/>
      </g>
     </g>
    </g>
    <g id="ytick_2">
     <g id="line2d_9">
      <g>
       <use style="stroke:#000000;stroke-width:0.8;" x="45.417188" xlink:href="#m8054802f6a" y="232.759219"/>
      </g>
     </g>
     <g id="text_10">
      <!-- 1.5 -->
      <g transform="translate(21.020313 236.558437)scale(0.1 -0.1)">
       <defs>
        <path d="M 3609 4666 
L 3609 3847 
L 1113 3847 
L 1113 2822 
Q 1319 2981 1572 3062 
Q 1825 3144 2106 3144 
Q 2969 3144 3469 2708 
Q 3969 2272 3969 1522 
Q 3969 759 3469 334 
Q 2969 -91 2069 -91 
Q 1688 -91 1311 -28 
Q 934 34 525 166 
L 525 1184 
L 900 1184 
Q 919 725 1139 500 
Q 1359 275 1791 275 
Q 2250 275 2472 583 
Q 2694 891 2694 1522 
Q 2694 2144 2476 2451 
Q 2259 2759 1819 2759 
Q 1581 2759 1395 2661 
Q 1209 2563 1050 2356 
L 738 2356 
L 738 4666 
L 3609 4666 
z
" id="DejaVuSerif-Bold-35" transform="scale(0.015625)"/>
       </defs>
       <use xlink:href="#DejaVuSerif-Bold-31"/>
       <use x="69.580078" xlink:href="#DejaVuSerif-Bold-2e"/>
       <use x="104.394531" xlink:href="#DejaVuSerif-Bold-35"/>
      </g>
     </g>
    </g>
    <g id="ytick_3">
     <g id="line2d_10">
      <g>
       <use style="stroke:#000000;stroke-width:0.8;" x="45.417188" xlink:href="#m8054802f6a" y="188.407219"/>
      </g>
     </g>
     <g id="text_11">
      <!-- 2.0 -->
      <g transform="translate(21.020313 192.206437)scale(0.1 -0.1)">
       <use xlink:href="#DejaVuSerif-Bold-32"/>
       <use x="69.580078" xlink:href="#DejaVuSerif-Bold-2e"/>
       <use x="104.394531" xlink:href="#DejaVuSerif-Bold-30"/>
      </g>
     </g>
    </g>
    <g id="ytick_4">
     <g id="line2d_11">
      <g>
       <use style="stroke:#000000;stroke-width:0.8;" x="45.417188" xlink:href="#m8054802f6a" y="144.055219"/>
      </g>
     </g>
     <g id="text_12">
      <!-- 2.5 -->
      <g transform="translate(21.020313 147.854437)scale(0.1 -0.1)">
       <use xlink:href="#DejaVuSerif-Bold-32"/>
       <use x="69.580078" xlink:href="#DejaVuSerif-Bold-2e"/>
       <use x="104.394531" xlink:href="#DejaVuSerif-Bold-35"/>
      </g>
     </g>
    </g>
    <g id="ytick_5">
     <g id="line2d_12">
      <g>
       <use style="stroke:#000000;stroke-width:0.8;" x="45.417188" xlink:href="#m8054802f6a" y="99.703219"/>
      </g>
     </g>
     <g id="text_13">
      <!-- 3.0 -->
      <g transform="translate(21.020313 103.502437)scale(0.1 -0.1)">
       <defs>
        <path d="M 550 4531 
Q 963 4641 1350 4695 
Q 1738 4750 2106 4750 
Q 2950 4750 3401 4448 
Q 3853 4147 3853 3584 
Q 3853 3163 3593 2900 
Q 3334 2638 2834 2547 
Q 3444 2450 3744 2131 
Q 4044 1813 4044 1259 
Q 4044 606 3526 257 
Q 3009 -91 2028 -91 
Q 1659 -91 1267 -28 
Q 875 34 447 159 
L 447 1184 
L 825 1184 
Q 859 741 1103 508 
Q 1347 275 1778 275 
Q 2253 275 2512 539 
Q 2772 803 2772 1288 
Q 2772 1794 2501 2069 
Q 2231 2344 1734 2344 
L 1528 2344 
L 1528 2719 
L 1691 2719 
Q 2150 2719 2381 2931 
Q 2613 3144 2613 3566 
Q 2613 3963 2395 4173 
Q 2178 4384 1772 4384 
Q 1403 4384 1187 4182 
Q 972 3981 928 3597 
L 550 3597 
L 550 4531 
z
" id="DejaVuSerif-Bold-33" transform="scale(0.015625)"/>
       </defs>
       <use xlink:href="#DejaVuSerif-Bold-33"/>
       <use x="69.580078" xlink:href="#DejaVuSerif-Bold-2e"/>
       <use x="104.394531" xlink:href="#DejaVuSerif-Bold-30"/>
      </g>
     </g>
    </g>
    <g id="ytick_6">
     <g id="line2d_13">
      <g>
       <use style="stroke:#000000;stroke-width:0.8;" x="45.417188" xlink:href="#m8054802f6a" y="55.351219"/>
      </g>
     </g>
     <g id="text_14">
      <!-- 3.5 -->
      <g transform="translate(21.020313 59.150437)scale(0.1 -0.1)">
       <use xlink:href="#DejaVuSerif-Bold-33"/>
       <use x="69.580078" xlink:href="#DejaVuSerif-Bold-2e"/>
       <use x="104.394531" xlink:href="#DejaVuSerif-Bold-35"/>
      </g>
     </g>
    </g>
    <g id="ytick_7">
     <g id="line2d_14">
      <g>
       <use style="stroke:#000000;stroke-width:0.8;" x="45.417188" xlink:href="#m8054802f6a" y="10.999219"/>
      </g>
     </g>
     <g id="text_15">
      <!-- 4.0 -->
      <g transform="translate(21.020313 14.798437)scale(0.1 -0.1)">
       <use xlink:href="#DejaVuSerif-Bold-34"/>
       <use x="69.580078" xlink:href="#DejaVuSerif-Bold-2e"/>
       <use x="104.394531" xlink:href="#DejaVuSerif-Bold-30"/>
      </g>
     </g>
    </g>
    <g id="text_16">
     <!-- The count of room visits in object search -->
     <g transform="translate(14.798438 258.720844)rotate(-90)scale(0.1 -0.1)">
      <defs>
       <path d="M 622 378 
L 622 4488 
L 147 4488 
L 147 4863 
L 1728 4863 
L 1728 2900 
Q 1869 3159 2106 3286 
Q 2344 3413 2694 3413 
Q 3403 3413 3811 2945 
Q 4219 2478 4219 1663 
Q 4219 847 3811 378 
Q 3403 -91 2694 -91 
Q 2344 -91 2106 36 
Q 1869 163 1728 422 
L 1728 0 
L 147 0 
L 147 378 
L 622 378 
z
M 1728 1497 
Q 1728 916 1876 656 
Q 2025 397 2356 397 
Q 2697 397 2836 672 
Q 2975 947 2975 1663 
Q 2975 2378 2836 2651 
Q 2697 2925 2356 2925 
Q 2025 2925 1876 2665 
Q 1728 2406 1728 1825 
L 1728 1497 
z
" id="DejaVuSerif-Bold-62" transform="scale(0.015625)"/>
       <path d="M 556 4263 
Q 556 4516 729 4689 
Q 903 4863 1159 4863 
Q 1403 4863 1578 4688 
Q 1753 4513 1753 4263 
Q 1753 4016 1579 3842 
Q 1406 3669 1159 3669 
Q 906 3669 731 3841 
Q 556 4013 556 4263 
z
M 684 2944 
L 213 2944 
L 213 3322 
L 1791 3322 
L 1791 -391 
Q 1791 -900 1430 -1161 
Q 1069 -1422 366 -1422 
Q 178 -1422 -34 -1390 
Q -247 -1359 -475 -1300 
L -475 -594 
L -122 -597 
Q -116 -847 -23 -958 
Q 69 -1069 275 -1069 
Q 503 -1069 593 -922 
Q 684 -775 684 -391 
L 684 2944 
z
" id="DejaVuSerif-Bold-6a" transform="scale(0.015625)"/>
      </defs>
      <use xlink:href="#DejaVuSerif-Bold-54"/>
      <use x="74.414062" xlink:href="#DejaVuSerif-Bold-68"/>
      <use x="147.119141" xlink:href="#DejaVuSerif-Bold-65"/>
      <use x="210.742188" xlink:href="#DejaVuSerif-Bold-20"/>
      <use x="245.556641" xlink:href="#DejaVuSerif-Bold-63"/>
      <use x="306.445312" xlink:href="#DejaVuSerif-Bold-6f"/>
      <use x="373.144531" xlink:href="#DejaVuSerif-Bold-75"/>
      <use x="445.849609" xlink:href="#DejaVuSerif-Bold-6e"/>
      <use x="518.554688" xlink:href="#DejaVuSerif-Bold-74"/>
      <use x="564.746094" xlink:href="#DejaVuSerif-Bold-20"/>
      <use x="599.560547" xlink:href="#DejaVuSerif-Bold-6f"/>
      <use x="666.259766" xlink:href="#DejaVuSerif-Bold-66"/>
      <use x="709.277344" xlink:href="#DejaVuSerif-Bold-20"/>
      <use x="744.091797" xlink:href="#DejaVuSerif-Bold-72"/>
      <use x="796.777344" xlink:href="#DejaVuSerif-Bold-6f"/>
      <use x="863.476562" xlink:href="#DejaVuSerif-Bold-6f"/>
      <use x="930.175781" xlink:href="#DejaVuSerif-Bold-6d"/>
      <use x="1035.986328" xlink:href="#DejaVuSerif-Bold-20"/>
      <use x="1070.800781" xlink:href="#DejaVuSerif-Bold-76"/>
      <use x="1128.90625" xlink:href="#DejaVuSerif-Bold-69"/>
      <use x="1166.894531" xlink:href="#DejaVuSerif-Bold-73"/>
      <use x="1223.193359" xlink:href="#DejaVuSerif-Bold-69"/>
      <use x="1261.181641" xlink:href="#DejaVuSerif-Bold-74"/>
      <use x="1307.373047" xlink:href="#DejaVuSerif-Bold-73"/>
      <use x="1363.671875" xlink:href="#DejaVuSerif-Bold-20"/>
      <use x="1398.486328" xlink:href="#DejaVuSerif-Bold-69"/>
      <use x="1436.474609" xlink:href="#DejaVuSerif-Bold-6e"/>
      <use x="1509.179688" xlink:href="#DejaVuSerif-Bold-20"/>
      <use x="1543.994141" xlink:href="#DejaVuSerif-Bold-6f"/>
      <use x="1610.693359" xlink:href="#DejaVuSerif-Bold-62"/>
      <use x="1680.615234" xlink:href="#DejaVuSerif-Bold-6a"/>
      <use x="1716.796875" xlink:href="#DejaVuSerif-Bold-65"/>
      <use x="1780.419922" xlink:href="#DejaVuSerif-Bold-63"/>
      <use x="1841.308594" xlink:href="#DejaVuSerif-Bold-74"/>
      <use x="1887.5" xlink:href="#DejaVuSerif-Bold-20"/>
      <use x="1922.314453" xlink:href="#DejaVuSerif-Bold-73"/>
      <use x="1978.613281" xlink:href="#DejaVuSerif-Bold-65"/>
      <use x="2042.236328" xlink:href="#DejaVuSerif-Bold-61"/>
      <use x="2107.03125" xlink:href="#DejaVuSerif-Bold-72"/>
      <use x="2159.716797" xlink:href="#DejaVuSerif-Bold-63"/>
      <use x="2220.605469" xlink:href="#DejaVuSerif-Bold-68"/>
     </g>
    </g>
   </g>
   <g id="line2d_15">
    <path clip-path="url(#p024490290f)" d="M 45.417188 154.699699 
L 75.177188 136.958899 
L 104.937188 191.955379 
L 134.697188 191.955379 
L 164.457188 203.486899 
L 194.217187 207.035059 
L 223.977188 191.955379 
L 253.737188 210.583219 
L 283.497187 247.838899 
L 313.257187 243.403699 
L 343.017187 258.483379 
L 372.777187 258.483379 
L 402.537188 273.563059 
" style="fill:none;stroke:#008000;stroke-linecap:square;stroke-width:1.5;"/>
    <defs>
     <path d="M 0 1.25 
C 0.331504 1.25 0.649475 1.118292 0.883883 0.883883 
C 1.118292 0.649475 1.25 0.331504 1.25 0 
C 1.25 -0.331504 1.118292 -0.649475 0.883883 -0.883883 
C 0.649475 -1.118292 0.331504 -1.25 0 -1.25 
C -0.331504 -1.25 -0.649475 -1.118292 -0.883883 -0.883883 
C -1.118292 -0.649475 -1.25 -0.331504 -1.25 0 
C -1.25 0.331504 -1.118292 0.649475 -0.883883 0.883883 
C -0.649475 1.118292 -0.331504 1.25 0 1.25 
z
" id="mfc4b629371" style="stroke:#008000;"/>
    </defs>
    <g clip-path="url(#p024490290f)">
     <use style="fill:#008000;stroke:#008000;" x="45.417188" xlink:href="#mfc4b629371" y="154.699699"/>
     <use style="fill:#008000;stroke:#008000;" x="75.177188" xlink:href="#mfc4b629371" y="136.958899"/>
     <use style="fill:#008000;stroke:#008000;" x="104.937188" xlink:href="#mfc4b629371" y="191.955379"/>
     <use style="fill:#008000;stroke:#008000;" x="134.697188" xlink:href="#mfc4b629371" y="191.955379"/>
     <use style="fill:#008000;stroke:#008000;" x="164.457188" xlink:href="#mfc4b629371" y="203.486899"/>
     <use style="fill:#008000;stroke:#008000;" x="194.217187" xlink:href="#mfc4b629371" y="207.035059"/>
     <use style="fill:#008000;stroke:#008000;" x="223.977188" xlink:href="#mfc4b629371" y="191.955379"/>
     <use style="fill:#008000;stroke:#008000;" x="253.737188" xlink:href="#mfc4b629371" y="210.583219"/>
     <use style="fill:#008000;stroke:#008000;" x="283.497187" xlink:href="#mfc4b629371" y="247.838899"/>
     <use style="fill:#008000;stroke:#008000;" x="313.257187" xlink:href="#mfc4b629371" y="243.403699"/>
     <use style="fill:#008000;stroke:#008000;" x="343.017187" xlink:href="#mfc4b629371" y="258.483379"/>
     <use style="fill:#008000;stroke:#008000;" x="372.777187" xlink:href="#mfc4b629371" y="258.483379"/>
     <use style="fill:#008000;stroke:#008000;" x="402.537188" xlink:href="#mfc4b629371" y="273.563059"/>
    </g>
   </g>
   <g id="line2d_16">
    <path clip-path="url(#p024490290f)" d="M 45.417188 207.035059 
L 75.177188 210.583219 
L 104.937188 207.035059 
L 134.697188 203.486899 
L 164.457188 207.035059 
L 194.217187 196.390579 
L 223.977188 203.486899 
L 253.737188 199.051699 
L 283.497187 207.035059 
L 313.257187 203.486899 
L 343.017187 203.486899 
L 372.777187 188.407219 
L 402.537188 199.051699 
" style="fill:none;stroke:#a52a2a;stroke-linecap:square;stroke-width:1.5;"/>
    <defs>
     <path d="M 0 1.25 
C 0.331504 1.25 0.649475 1.118292 0.883883 0.883883 
C 1.118292 0.649475 1.25 0.331504 1.25 0 
C 1.25 -0.331504 1.118292 -0.649475 0.883883 -0.883883 
C 0.649475 -1.118292 0.331504 -1.25 0 -1.25 
C -0.331504 -1.25 -0.649475 -1.118292 -0.883883 -0.883883 
C -1.118292 -0.649475 -1.25 -0.331504 -1.25 0 
C -1.25 0.331504 -1.118292 0.649475 -0.883883 0.883883 
C -0.649475 1.118292 -0.331504 1.25 0 1.25 
z
" id="m3c3f27c89a" style="stroke:#a52a2a;"/>
    </defs>
    <g clip-path="url(#p024490290f)">
     <use style="fill:#a52a2a;stroke:#a52a2a;" x="45.417188" xlink:href="#m3c3f27c89a" y="207.035059"/>
     <use style="fill:#a52a2a;stroke:#a52a2a;" x="75.177188" xlink:href="#m3c3f27c89a" y="210.583219"/>
     <use style="fill:#a52a2a;stroke:#a52a2a;" x="104.937188" xlink:href="#m3c3f27c89a" y="207.035059"/>
     <use style="fill:#a52a2a;stroke:#a52a2a;" x="134.697188" xlink:href="#m3c3f27c89a" y="203.486899"/>
     <use style="fill:#a52a2a;stroke:#a52a2a;" x="164.457188" xlink:href="#m3c3f27c89a" y="207.035059"/>
     <use style="fill:#a52a2a;stroke:#a52a2a;" x="194.217187" xlink:href="#m3c3f27c89a" y="196.390579"/>
     <use style="fill:#a52a2a;stroke:#a52a2a;" x="223.977188" xlink:href="#m3c3f27c89a" y="203.486899"/>
     <use style="fill:#a52a2a;stroke:#a52a2a;" x="253.737188" xlink:href="#m3c3f27c89a" y="199.051699"/>
     <use style="fill:#a52a2a;stroke:#a52a2a;" x="283.497187" xlink:href="#m3c3f27c89a" y="207.035059"/>
     <use style="fill:#a52a2a;stroke:#a52a2a;" x="313.257187" xlink:href="#m3c3f27c89a" y="203.486899"/>
     <use style="fill:#a52a2a;stroke:#a52a2a;" x="343.017187" xlink:href="#m3c3f27c89a" y="203.486899"/>
     <use style="fill:#a52a2a;stroke:#a52a2a;" x="372.777187" xlink:href="#m3c3f27c89a" y="188.407219"/>
     <use style="fill:#a52a2a;stroke:#a52a2a;" x="402.537188" xlink:href="#m3c3f27c89a" y="199.051699"/>
    </g>
   </g>
   <g id="line2d_17">
    <path clip-path="url(#p024490290f)" d="M 45.417188 207.035059 
L 75.177188 188.407219 
L 104.937188 229.211059 
L 134.697188 243.403699 
L 164.457188 232.759219 
L 194.217187 239.855539 
L 223.977188 247.838899 
L 253.737188 229.211059 
L 283.497187 265.579699 
L 313.257187 262.031539 
L 343.017187 270.014899 
L 372.777187 265.579699 
L 402.537188 277.111219 
" style="fill:none;stroke:#ff0000;stroke-linecap:square;stroke-width:1.5;"/>
    <defs>
     <path d="M 0 1.25 
C 0.331504 1.25 0.649475 1.118292 0.883883 0.883883 
C 1.118292 0.649475 1.25 0.331504 1.25 0 
C 1.25 -0.331504 1.118292 -0.649475 0.883883 -0.883883 
C 0.649475 -1.118292 0.331504 -1.25 0 -1.25 
C -0.331504 -1.25 -0.649475 -1.118292 -0.883883 -0.883883 
C -1.118292 -0.649475 -1.25 -0.331504 -1.25 0 
C -1.25 0.331504 -1.118292 0.649475 -0.883883 0.883883 
C -0.649475 1.118292 -0.331504 1.25 0 1.25 
z
" id="m6858556396" style="stroke:#ff0000;"/>
    </defs>
    <g clip-path="url(#p024490290f)">
     <use style="fill:#ff0000;stroke:#ff0000;" x="45.417188" xlink:href="#m6858556396" y="207.035059"/>
     <use style="fill:#ff0000;stroke:#ff0000;" x="75.177188" xlink:href="#m6858556396" y="188.407219"/>
     <use style="fill:#ff0000;stroke:#ff0000;" x="104.937188" xlink:href="#m6858556396" y="229.211059"/>
     <use style="fill:#ff0000;stroke:#ff0000;" x="134.697188" xlink:href="#m6858556396" y="243.403699"/>
     <use style="fill:#ff0000;stroke:#ff0000;" x="164.457188" xlink:href="#m6858556396" y="232.759219"/>
     <use style="fill:#ff0000;stroke:#ff0000;" x="194.217187" xlink:href="#m6858556396" y="239.855539"/>
     <use style="fill:#ff0000;stroke:#ff0000;" x="223.977188" xlink:href="#m6858556396" y="247.838899"/>
     <use style="fill:#ff0000;stroke:#ff0000;" x="253.737188" xlink:href="#m6858556396" y="229.211059"/>
     <use style="fill:#ff0000;stroke:#ff0000;" x="283.497187" xlink:href="#m6858556396" y="265.579699"/>
     <use style="fill:#ff0000;stroke:#ff0000;" x="313.257187" xlink:href="#m6858556396" y="262.031539"/>
     <use style="fill:#ff0000;stroke:#ff0000;" x="343.017187" xlink:href="#m6858556396" y="270.014899"/>
     <use style="fill:#ff0000;stroke:#ff0000;" x="372.777187" xlink:href="#m6858556396" y="265.579699"/>
     <use style="fill:#ff0000;stroke:#ff0000;" x="402.537188" xlink:href="#m6858556396" y="277.111219"/>
    </g>
   </g>
   <g id="line2d_18">
    <path clip-path="url(#p024490290f)" d="M 45.417188 232.759219 
L 75.177188 207.035059 
L 104.937188 251.387059 
L 134.697188 236.307379 
L 164.457188 254.935219 
L 194.217187 254.935219 
L 223.977188 258.483379 
L 253.737188 254.935219 
L 283.497187 265.579699 
L 313.257187 265.579699 
L 343.017187 254.935219 
L 372.777187 265.579699 
L 402.537188 277.111219 
" style="fill:none;stroke:#0000ff;stroke-linecap:square;stroke-width:2.5;"/>
    <defs>
     <path d="M 0 1.25 
C 0.331504 1.25 0.649475 1.118292 0.883883 0.883883 
C 1.118292 0.649475 1.25 0.331504 1.25 0 
C 1.25 -0.331504 1.118292 -0.649475 0.883883 -0.883883 
C 0.649475 -1.118292 0.331504 -1.25 0 -1.25 
C -0.331504 -1.25 -0.649475 -1.118292 -0.883883 -0.883883 
C -1.118292 -0.649475 -1.25 -0.331504 -1.25 0 
C -1.25 0.331504 -1.118292 0.649475 -0.883883 0.883883 
C -0.649475 1.118292 -0.331504 1.25 0 1.25 
z
" id="mf04ee47a7c" style="stroke:#0000ff;"/>
    </defs>
    <g clip-path="url(#p024490290f)">
     <use style="fill:#0000ff;stroke:#0000ff;" x="45.417188" xlink:href="#mf04ee47a7c" y="232.759219"/>
     <use style="fill:#0000ff;stroke:#0000ff;" x="75.177188" xlink:href="#mf04ee47a7c" y="207.035059"/>
     <use style="fill:#0000ff;stroke:#0000ff;" x="104.937188" xlink:href="#mf04ee47a7c" y="251.387059"/>
     <use style="fill:#0000ff;stroke:#0000ff;" x="134.697188" xlink:href="#mf04ee47a7c" y="236.307379"/>
     <use style="fill:#0000ff;stroke:#0000ff;" x="164.457188" xlink:href="#mf04ee47a7c" y="254.935219"/>
     <use style="fill:#0000ff;stroke:#0000ff;" x="194.217187" xlink:href="#mf04ee47a7c" y="254.935219"/>
     <use style="fill:#0000ff;stroke:#0000ff;" x="223.977188" xlink:href="#mf04ee47a7c" y="258.483379"/>
     <use style="fill:#0000ff;stroke:#0000ff;" x="253.737188" xlink:href="#mf04ee47a7c" y="254.935219"/>
     <use style="fill:#0000ff;stroke:#0000ff;" x="283.497187" xlink:href="#mf04ee47a7c" y="265.579699"/>
     <use style="fill:#0000ff;stroke:#0000ff;" x="313.257187" xlink:href="#mf04ee47a7c" y="265.579699"/>
     <use style="fill:#0000ff;stroke:#0000ff;" x="343.017187" xlink:href="#mf04ee47a7c" y="254.935219"/>
     <use style="fill:#0000ff;stroke:#0000ff;" x="372.777187" xlink:href="#mf04ee47a7c" y="265.579699"/>
     <use style="fill:#0000ff;stroke:#0000ff;" x="402.537188" xlink:href="#mf04ee47a7c" y="277.111219"/>
    </g>
   </g>
   <g id="patch_3">
    <path d="M 45.417188 277.111219 
L 45.417188 10.999219 
" style="fill:none;stroke:#000000;stroke-linecap:square;stroke-linejoin:miter;stroke-width:0.8;"/>
   </g>
   <g id="patch_4">
    <path d="M 402.537188 277.111219 
L 402.537188 10.999219 
" style="fill:none;stroke:#000000;stroke-linecap:square;stroke-linejoin:miter;stroke-width:0.8;"/>
   </g>
   <g id="patch_5">
    <path d="M 45.417188 277.111219 
L 402.537188 277.111219 
" style="fill:none;stroke:#000000;stroke-linecap:square;stroke-linejoin:miter;stroke-width:0.8;"/>
   </g>
   <g id="patch_6">
    <path d="M 45.417188 10.999219 
L 402.537188 10.999219 
" style="fill:none;stroke:#000000;stroke-linecap:square;stroke-linejoin:miter;stroke-width:0.8;"/>
   </g>
   <g id="legend_1">
    <g id="patch_7">
     <path d="M 174.074688 77.853906 
L 395.537188 77.853906 
Q 397.537188 77.853906 397.537188 75.853906 
L 397.537188 17.999219 
Q 397.537188 15.999219 395.537188 15.999219 
L 174.074688 15.999219 
Q 172.074688 15.999219 172.074688 17.999219 
L 172.074688 75.853906 
Q 172.074688 77.853906 174.074688 77.853906 
z
" style="fill:#ffffff;opacity:0.8;stroke:#cccccc;stroke-linejoin:miter;"/>
    </g>
    <g id="line2d_19">
     <path d="M 176.074688 24.097656 
L 196.074688 24.097656 
" style="fill:none;stroke:#008000;stroke-linecap:square;stroke-width:1.5;"/>
    </g>
    <g id="line2d_20">
     <g>
      <use style="fill:#008000;stroke:#008000;" x="186.074688" xlink:href="#mfc4b629371" y="24.097656"/>
     </g>
    </g>
    <g id="text_17">
     <!-- SpCoSLAM -->
     <g transform="translate(204.074688 27.597656)scale(0.1 -0.1)">
      <defs>
       <path d="M 494 225 
L 494 1331 
L 891 1331 
Q 981 806 1318 547 
Q 1656 288 2253 288 
Q 2738 288 2991 472 
Q 3244 656 3244 1013 
Q 3244 1294 3072 1450 
Q 2900 1606 2363 1741 
L 1663 1913 
Q 978 2088 700 2398 
Q 422 2709 422 3284 
Q 422 3978 883 4364 
Q 1344 4750 2175 4750 
Q 2584 4750 3026 4681 
Q 3469 4613 3944 4475 
L 3944 3444 
L 3547 3444 
Q 3456 3925 3150 4148 
Q 2844 4372 2278 4372 
Q 1816 4372 1580 4211 
Q 1344 4050 1344 3731 
Q 1344 3441 1506 3289 
Q 1669 3138 2303 2975 
L 3003 2803 
Q 3653 2641 3945 2297 
Q 4238 1953 4238 1350 
Q 4238 644 3750 276 
Q 3263 -91 2316 -91 
Q 1859 -91 1409 -12 
Q 959 66 494 225 
z
" id="DejaVuSerif-Bold-53" transform="scale(0.015625)"/>
       <path d="M 1728 1825 
L 1728 1497 
Q 1728 916 1876 656 
Q 2025 397 2356 397 
Q 2697 397 2836 672 
Q 2975 947 2975 1663 
Q 2975 2378 2836 2651 
Q 2697 2925 2356 2925 
Q 2025 2925 1876 2665 
Q 1728 2406 1728 1825 
z
M 622 2944 
L 147 2944 
L 147 3322 
L 1728 3322 
L 1728 2900 
Q 1869 3159 2106 3286 
Q 2344 3413 2694 3413 
Q 3403 3413 3811 2945 
Q 4219 2478 4219 1663 
Q 4219 847 3811 378 
Q 3403 -91 2694 -91 
Q 2344 -91 2106 36 
Q 1869 163 1728 422 
L 1728 -953 
L 2241 -953 
L 2241 -1331 
L 147 -1331 
L 147 -953 
L 622 -953 
L 622 2944 
z
" id="DejaVuSerif-Bold-70" transform="scale(0.015625)"/>
       <path d="M 4769 1331 
Q 4584 609 4106 259 
Q 3628 -91 2822 -91 
Q 1641 -91 955 561 
Q 269 1213 269 2328 
Q 269 3447 955 4098 
Q 1641 4750 2822 4750 
Q 3238 4750 3688 4650 
Q 4138 4550 4641 4347 
L 4641 3200 
L 4244 3200 
Q 4122 3788 3800 4080 
Q 3478 4372 2950 4372 
Q 2269 4372 1937 3870 
Q 1606 3369 1606 2328 
Q 1606 1288 1937 788 
Q 2269 288 2956 288 
Q 3422 288 3717 547 
Q 4013 806 4147 1331 
L 4769 1331 
z
" id="DejaVuSerif-Bold-43" transform="scale(0.015625)"/>
       <path d="M 300 0 
L 300 378 
L 897 378 
L 897 4288 
L 300 4288 
L 300 4666 
L 2700 4666 
L 2700 4288 
L 2100 4288 
L 2100 428 
L 3938 428 
L 3938 1166 
L 4359 1166 
L 4359 0 
L 300 0 
z
" id="DejaVuSerif-Bold-4c" transform="scale(0.015625)"/>
       <path d="M -50 0 
L -50 378 
L 331 378 
L 2088 4666 
L 2834 4666 
L 4594 378 
L 5038 378 
L 5038 0 
L 2853 0 
L 2853 378 
L 3309 378 
L 2925 1331 
L 1172 1331 
L 781 378 
L 1338 378 
L 1338 0 
L -50 0 
z
M 1325 1709 
L 2772 1709 
L 2053 3494 
L 1325 1709 
z
" id="DejaVuSerif-Bold-41" transform="scale(0.015625)"/>
       <path d="M 269 0 
L 269 378 
L 863 378 
L 863 4288 
L 269 4288 
L 269 4666 
L 2194 4666 
L 3525 1672 
L 4863 4666 
L 6784 4666 
L 6784 4288 
L 6188 4288 
L 6188 378 
L 6784 378 
L 6784 0 
L 4384 0 
L 4384 378 
L 4978 378 
L 4978 3938 
L 3531 684 
L 2741 684 
L 1300 3938 
L 1300 378 
L 1894 378 
L 1894 0 
L 269 0 
z
" id="DejaVuSerif-Bold-4d" transform="scale(0.015625)"/>
      </defs>
      <use xlink:href="#DejaVuSerif-Bold-53"/>
      <use x="72.216797" xlink:href="#DejaVuSerif-Bold-70"/>
      <use x="142.138672" xlink:href="#DejaVuSerif-Bold-43"/>
      <use x="221.728516" xlink:href="#DejaVuSerif-Bold-6f"/>
      <use x="288.427734" xlink:href="#DejaVuSerif-Bold-53"/>
      <use x="360.644531" xlink:href="#DejaVuSerif-Bold-4c"/>
      <use x="430.957031" xlink:href="#DejaVuSerif-Bold-41"/>
      <use x="508.544922" xlink:href="#DejaVuSerif-Bold-4d"/>
     </g>
    </g>
    <g id="line2d_21">
     <path d="M 176.074688 38.775781 
L 196.074688 38.775781 
" style="fill:none;stroke:#a52a2a;stroke-linecap:square;stroke-width:1.5;"/>
    </g>
    <g id="line2d_22">
     <g>
      <use style="fill:#a52a2a;stroke:#a52a2a;" x="186.074688" xlink:href="#m3c3f27c89a" y="38.775781"/>
     </g>
    </g>
    <g id="text_18">
     <!-- Prior -->
     <g transform="translate(204.074688 42.275781)scale(0.1 -0.1)">
      <defs>
       <path d="M 300 0 
L 300 378 
L 897 378 
L 897 4288 
L 300 4288 
L 300 4666 
L 2956 4666 
Q 3734 4666 4193 4295 
Q 4653 3925 4653 3303 
Q 4653 2678 4192 2304 
Q 3731 1931 2956 1931 
L 2100 1931 
L 2100 378 
L 2853 378 
L 2853 0 
L 300 0 
z
M 2100 2309 
L 2450 2309 
Q 2856 2309 3098 2579 
Q 3341 2850 3341 3303 
Q 3341 3753 3100 4020 
Q 2859 4288 2450 4288 
L 2100 4288 
L 2100 2309 
z
" id="DejaVuSerif-Bold-50" transform="scale(0.015625)"/>
      </defs>
      <use xlink:href="#DejaVuSerif-Bold-50"/>
      <use x="75.195312" xlink:href="#DejaVuSerif-Bold-72"/>
      <use x="127.880859" xlink:href="#DejaVuSerif-Bold-69"/>
      <use x="165.869141" xlink:href="#DejaVuSerif-Bold-6f"/>
      <use x="232.568359" xlink:href="#DejaVuSerif-Bold-72"/>
     </g>
    </g>
    <g id="line2d_23">
     <path d="M 176.074688 53.453906 
L 196.074688 53.453906 
" style="fill:none;stroke:#ff0000;stroke-linecap:square;stroke-width:1.5;"/>
    </g>
    <g id="line2d_24">
     <g>
      <use style="fill:#ff0000;stroke:#ff0000;" x="186.074688" xlink:href="#m6858556396" y="53.453906"/>
     </g>
    </g>
    <g id="text_19">
     <!-- SpCoSLAM + Prior -->
     <g transform="translate(204.074688 56.953906)scale(0.1 -0.1)">
      <defs>
       <path d="M 3041 4013 
L 3041 2369 
L 4684 2369 
L 4684 1650 
L 3041 1650 
L 3041 6 
L 2322 6 
L 2322 1650 
L 678 1650 
L 678 2369 
L 2322 2369 
L 2322 4013 
L 3041 4013 
z
" id="DejaVuSerif-Bold-2b" transform="scale(0.015625)"/>
      </defs>
      <use xlink:href="#DejaVuSerif-Bold-53"/>
      <use x="72.216797" xlink:href="#DejaVuSerif-Bold-70"/>
      <use x="142.138672" xlink:href="#DejaVuSerif-Bold-43"/>
      <use x="221.728516" xlink:href="#DejaVuSerif-Bold-6f"/>
      <use x="288.427734" xlink:href="#DejaVuSerif-Bold-53"/>
      <use x="360.644531" xlink:href="#DejaVuSerif-Bold-4c"/>
      <use x="430.957031" xlink:href="#DejaVuSerif-Bold-41"/>
      <use x="508.544922" xlink:href="#DejaVuSerif-Bold-4d"/>
      <use x="619.238281" xlink:href="#DejaVuSerif-Bold-20"/>
      <use x="654.052734" xlink:href="#DejaVuSerif-Bold-2b"/>
      <use x="737.841797" xlink:href="#DejaVuSerif-Bold-20"/>
      <use x="772.65625" xlink:href="#DejaVuSerif-Bold-50"/>
      <use x="847.851562" xlink:href="#DejaVuSerif-Bold-72"/>
      <use x="900.537109" xlink:href="#DejaVuSerif-Bold-69"/>
      <use x="938.525391" xlink:href="#DejaVuSerif-Bold-6f"/>
      <use x="1005.224609" xlink:href="#DejaVuSerif-Bold-72"/>
     </g>
    </g>
    <g id="line2d_25">
     <path d="M 176.074688 68.132031 
L 196.074688 68.132031 
" style="fill:none;stroke:#0000ff;stroke-linecap:square;stroke-width:2.5;"/>
    </g>
    <g id="line2d_26">
     <g>
      <use style="fill:#0000ff;stroke:#0000ff;" x="186.074688" xlink:href="#mf04ee47a7c" y="68.132031"/>
     </g>
    </g>
    <g id="text_20">
     <!-- SpCoSLAM + ProbLog (Proposed) -->
     <g transform="translate(204.074688 71.632031)scale(0.1 -0.1)">
      <defs>
       <path d="M 2694 -997 
Q 1641 -606 1122 122 
Q 603 850 603 1931 
Q 603 3013 1115 3731 
Q 1628 4450 2694 4863 
L 2694 4488 
Q 2200 4188 1983 3598 
Q 1766 3009 1766 1931 
Q 1766 856 1983 267 
Q 2200 -322 2694 -622 
L 2694 -997 
z
" id="DejaVuSerif-Bold-28" transform="scale(0.015625)"/>
       <path d="M 2747 1497 
L 2747 1825 
Q 2747 2406 2597 2665 
Q 2447 2925 2119 2925 
Q 1775 2925 1636 2651 
Q 1497 2378 1497 1663 
Q 1497 947 1637 672 
Q 1778 397 2119 397 
Q 2447 397 2597 656 
Q 2747 916 2747 1497 
z
M 3853 378 
L 4325 378 
L 4325 0 
L 2747 0 
L 2747 422 
Q 2606 163 2367 36 
Q 2128 -91 1778 -91 
Q 1072 -91 667 378 
Q 263 847 263 1663 
Q 263 2481 667 2947 
Q 1072 3413 1778 3413 
Q 2128 3413 2367 3286 
Q 2606 3159 2747 2900 
L 2747 4488 
L 2272 4488 
L 2272 4863 
L 3853 4863 
L 3853 378 
z
" id="DejaVuSerif-Bold-64" transform="scale(0.015625)"/>
       <path d="M 325 -997 
L 325 -622 
Q 819 -322 1036 267 
Q 1253 856 1253 1931 
Q 1253 3009 1036 3598 
Q 819 4188 325 4488 
L 325 4863 
Q 1391 4450 1905 3731 
Q 2419 3013 2419 1931 
Q 2419 850 1898 122 
Q 1378 -606 325 -997 
z
" id="DejaVuSerif-Bold-29" transform="scale(0.015625)"/>
      </defs>
      <use xlink:href="#DejaVuSerif-Bold-53"/>
      <use x="72.216797" xlink:href="#DejaVuSerif-Bold-70"/>
      <use x="142.138672" xlink:href="#DejaVuSerif-Bold-43"/>
      <use x="221.728516" xlink:href="#DejaVuSerif-Bold-6f"/>
      <use x="288.427734" xlink:href="#DejaVuSerif-Bold-53"/>
      <use x="360.644531" xlink:href="#DejaVuSerif-Bold-4c"/>
      <use x="430.957031" xlink:href="#DejaVuSerif-Bold-41"/>
      <use x="508.544922" xlink:href="#DejaVuSerif-Bold-4d"/>
      <use x="619.238281" xlink:href="#DejaVuSerif-Bold-20"/>
      <use x="654.052734" xlink:href="#DejaVuSerif-Bold-2b"/>
      <use x="737.841797" xlink:href="#DejaVuSerif-Bold-20"/>
      <use x="772.65625" xlink:href="#DejaVuSerif-Bold-50"/>
      <use x="847.851562" xlink:href="#DejaVuSerif-Bold-72"/>
      <use x="900.537109" xlink:href="#DejaVuSerif-Bold-6f"/>
      <use x="967.236328" xlink:href="#DejaVuSerif-Bold-62"/>
      <use x="1037.158203" xlink:href="#DejaVuSerif-Bold-4c"/>
      <use x="1107.470703" xlink:href="#DejaVuSerif-Bold-6f"/>
      <use x="1174.169922" xlink:href="#DejaVuSerif-Bold-67"/>
      <use x="1244.091797" xlink:href="#DejaVuSerif-Bold-20"/>
      <use x="1278.90625" xlink:href="#DejaVuSerif-Bold-28"/>
      <use x="1326.220703" xlink:href="#DejaVuSerif-Bold-50"/>
      <use x="1401.416016" xlink:href="#DejaVuSerif-Bold-72"/>
      <use x="1454.101562" xlink:href="#DejaVuSerif-Bold-6f"/>
      <use x="1520.800781" xlink:href="#DejaVuSerif-Bold-70"/>
      <use x="1590.722656" xlink:href="#DejaVuSerif-Bold-6f"/>
      <use x="1657.421875" xlink:href="#DejaVuSerif-Bold-73"/>
      <use x="1713.720703" xlink:href="#DejaVuSerif-Bold-65"/>
      <use x="1777.34375" xlink:href="#DejaVuSerif-Bold-64"/>
      <use x="1847.265625" xlink:href="#DejaVuSerif-Bold-29"/>
     </g>
    </g>
   </g>
  </g>
 </g>
 <defs>
  <clipPath id="p024490290f">
   <rect height="266.112" width="357.12" x="45.417188" y="10.999219"/>
  </clipPath>
 </defs>
</svg>
